<?xml version="1.0" encoding="UTF-8"?>
<svg xmlns="http://www.w3.org/2000/svg" width="240" height="320" viewBox="0 0 60 80">
  <!-- Simple, clean Santa sprite; scales well to 60x80 -->
  <defs>
    <linearGradient id="coat" x1="0" y1="0" x2="0" y2="1">
      <stop offset="0%" stop-color="#ef5350"/>
      <stop offset="100%" stop-color="#c62828"/>
    </linearGradient>
  </defs>
  <g fill="none" stroke-linecap="round" stroke-linejoin="round">
    <!-- Head -->
    <circle cx="30" cy="18" r="10" fill="#ffe0b2" stroke="#333" stroke-width="1.5"/>
    <!-- Hat -->
    <path d="M16,18 Q30,2 44,18 L44,22 L16,22 Z" fill="#e53935" stroke="#a31616" stroke-width="1"/>
    <circle cx="44" cy="18" r="2.5" fill="#fff" stroke="#ccc" stroke-width="0.5"/>
    <!-- Beard -->
    <path d="M18,22 Q30,36 42,22 Q30,28 18,22 Z" fill="#fff" stroke="#ccc" stroke-width="1"/>
    <!-- Body -->
    <rect x="18" y="36" width="24" height="22" rx="3" fill="url(#coat)" stroke="#7f1d1d" stroke-width="1"/>
    <rect x="18" y="58" width="24" height="6" rx="2" fill="#fff" stroke="#ccc" stroke-width="0.8"/>
    <!-- Belt -->
    <rect x="18" y="50" width="24" height="4" fill="#212121"/>
    <rect x="26" y="50.5" width="8" height="3" fill="#fdd835"/>
    <!-- Arms (simple) -->
    <path d="M18,40 L12,48" stroke="#c62828" stroke-width="3"/>
    <path d="M42,40 L48,48" stroke="#c62828" stroke-width="3"/>
    <!-- Boots -->
    <rect x="22" y="64" width="6" height="6" rx="1" fill="#000"/>
    <rect x="32" y="64" width="6" height="6" rx="1" fill="#000"/>
  </g>
</svg>
