<?xml version="1.0" encoding="UTF-8"?>
<svg xmlns="http://www.w3.org/2000/svg" width="800" height="500" viewBox="0 0 800 500">
  <!-- Cañaveras (Cuenca) - llanura manchega con tonos calizos, pueblo y pequeña iglesia románica estilizada -->
  <defs>
    <linearGradient id="sky" x1="0" y1="0" x2="0" y2="1">
      <stop offset="0%" stop-color="#c5e1f5"/>
      <stop offset="100%" stop-color="#eaf4fe"/>
    </linearGradient>
    <linearGradient id="plain" x1="0" y1="0" x2="0" y2="1">
      <stop offset="0%" stop-color="#f3e5ab"/>
      <stop offset="100%" stop-color="#e0c97a"/>
    </linearGradient>
  </defs>
  <!-- cielo -->
  <rect x="0" y="0" width="800" height="500" fill="url(#sky)"/>
  <!-- ondulaciones suaves de terreno calizo -->
  <g fill="#e6d79b" opacity="0.6">
    <path d="M0,280 C160,260 300,300 460,290 C600,280 700,310 800,296 L800,330 L0,330 Z"/>
    <path d="M0,340 C200,320 360,360 560,350 C680,344 760,360 800,354 L800,380 L0,380 Z" opacity="0.6"/>
  </g>
  <!-- llanura -->
  <rect x="0" y="330" width="800" height="170" fill="url(#plain)"/>
  <!-- pueblo -->
  <g>
    <g transform="translate(150,300)">
      <rect x="0" y="40" width="70" height="44" fill="#ddd5c7" stroke="#bdb6a8"/>
      <polygon points="-6,40 35,18 76,40" fill="#bf6740" stroke="#8a3f1f"/>
      <rect x="14" y="58" width="14" height="12" fill="#a5c8f0"/>
    </g>
    <g transform="translate(220,306)">
      <rect x="0" y="40" width="60" height="40" fill="#ddd5c7" stroke="#bdb6a8"/>
      <polygon points="-6,40 30,22 66,40" fill="#bf6740" stroke="#8a3f1f"/>
    </g>
    <!-- iglesia pequeña -->
    <g transform="translate(300,288)">
      <rect x="0" y="52" width="40" height="52" fill="#e5dcc9" stroke="#bdb6a8"/>
      <polygon points="-4,52 20,30 44,52" fill="#c96b3c" stroke="#8a3f1f"/>
      <rect x="16" y="68" width="8" height="12" fill="#8d6e63"/>
      <circle cx="20" cy="62" r="4" fill="#6d4c41"/>
    </g>
  </g>
  <!-- cañas (siluetas) -->
  <g fill="#2e7d32" opacity="0.8">
    <rect x="110" y="320" width="12" height="90" rx="6"/>
    <rect x="128" y="300" width="10" height="110" rx="5"/>
    <rect x="144" y="330" width="10" height="80" rx="5"/>
  </g>
</svg>
