<?xml version="1.0" encoding="UTF-8"?>
<svg xmlns="http://www.w3.org/2000/svg" width="800" height="500" viewBox="0 0 800 500">
  <defs>
    <linearGradient id="sand" x1="0" y1="0" x2="0" y2="1">
      <stop offset="0%" stop-color="#f8e2b8"/>
      <stop offset="100%" stop-color="#e8c87a"/>
    </linearGradient>
    <linearGradient id="sky" x1="0" y1="0" x2="0" y2="1">
      <stop offset="0%" stop-color="#87ceeb"/>
      <stop offset="100%" stop-color="#cdeffd"/>
    </linearGradient>
  </defs>
  <!-- sky band -->
  <rect x="0" y="0" width="800" height="180" fill="url(#sky)"/>
  <!-- dunes -->
  <rect x="0" y="180" width="800" height="320" fill="url(#sand)"/>
  <path d="M0,220 C120,200 200,240 320,230 C460,220 540,250 680,240 C740,236 780,240 800,238 L800,260 L0,260 Z" fill="#f1d9a0" opacity="0.6"/>
  <path d="M0,300 C160,290 260,320 420,310 C560,300 640,330 800,320 L800,360 L0,360 Z" fill="#d9b769" opacity="0.5"/>
  <!-- central road -->
  <rect x="260" y="0" width="280" height="500" fill="#545454"/>
  <!-- road edges -->
  <rect x="260" y="0" width="6" height="500" fill="#3a3a3a"/>
  <rect x="534" y="0" width="6" height="500" fill="#3a3a3a"/>
  <!-- dashed center line -->
  <g stroke="#ffffff" stroke-width="6" stroke-linecap="round">
    <line x1="400" y1="20" x2="400" y2="60"/>
    <line x1="400" y1="90" x2="400" y2="130"/>
    <line x1="400" y1="160" x2="400" y2="200"/>
    <line x1="400" y1="230" x2="400" y2="270"/>
    <line x1="400" y1="300" x2="400" y2="340"/>
    <line x1="400" y1="370" x2="400" y2="410"/>
    <line x1="400" y1="440" x2="400" y2="480"/>
  </g>
  <!-- cacti silhouettes -->
  <g fill="#2e7d32" opacity="0.7">
    <path d="M60,340 v-40 c0-10 14-10 14,0 v40 h10 v-80 c0-14 18-14 18,0 v80 h12 v60 h-54z"/>
    <path d="M720,360 v-50 c0-10 12-10 12,0 v50 h10 v-90 c0-14 16-14 16,0 v90 h12 v50 h-50z"/>
  </g>
</svg>
